<svg id="location" xmlns="http://www.w3.org/2000/svg" width="23.168" height="23.168" viewBox="0 0 23.168 23.168">
  <path id="Path_19140" data-name="Path 19140" d="M21.192,357.2a.679.679,0,0,0-.654,1.19c.809.444,1.272.937,1.272,1.351,0,.507-.718,1.292-2.734,1.977a24.237,24.237,0,0,1-7.493,1.049,24.237,24.237,0,0,1-7.493-1.049c-2.016-.685-2.734-1.47-2.734-1.977,0-.414.464-.907,1.272-1.351a.679.679,0,1,0-.654-1.19A3.229,3.229,0,0,0,0,359.74c0,.922.634,2.236,3.654,3.263a25.608,25.608,0,0,0,7.93,1.121A25.608,25.608,0,0,0,19.513,363c3.02-1.026,3.654-2.341,3.654-3.263A3.229,3.229,0,0,0,21.192,357.2Z" transform="translate(0 -340.956)" fill="#05253c"/>
  <path id="Path_19141" data-name="Path 19141" d="M89.15,344.823a22.054,22.054,0,0,0,10.249,0c1.686-.476,2.54-1.166,2.54-2.049s-.855-1.572-2.54-2.049c-.374-.106-.781-.2-1.214-.278q-.352.609-.739,1.254c.479.072.929.16,1.337.264a3.466,3.466,0,0,1,1.787.808,3.465,3.465,0,0,1-1.787.808,18.742,18.742,0,0,1-4.276.485c-.077.006-.155.009-.233.009s-.156,0-.233-.009a18.74,18.74,0,0,1-4.276-.485,3.465,3.465,0,0,1-1.787-.808,3.466,3.466,0,0,1,1.787-.808c.408-.1.858-.192,1.337-.264q-.386-.645-.739-1.254c-.433.079-.84.172-1.214.278-1.686.476-2.54,1.165-2.54,2.049S87.465,344.347,89.15,344.823Z" transform="translate(-82.691 -325.043)" fill="#05253c"/>
  <path id="Path_19142" data-name="Path 19142" d="M122.87,17.676a1.709,1.709,0,0,0,1.468-.824c2.209-3.614,4.841-8.376,4.841-10.543a6.31,6.31,0,0,0-12.619,0c0,2.167,2.633,6.929,4.841,10.543A1.709,1.709,0,0,0,122.87,17.676Zm-2.536-11.8a2.536,2.536,0,1,1,2.536,2.536A2.539,2.539,0,0,1,120.334,5.876Z" transform="translate(-111.286 0)" fill="#05253c"/>
</svg>
