<svg xmlns="http://www.w3.org/2000/svg" width="15.162" height="10.111" viewBox="0 0 15.162 10.111">
  <path id="Icon_ionic-ios-arrow-round-back" data-name="Icon ionic-ios-arrow-round-back" d="M13.375,11.445a.688.688,0,0,1,.005.969l-3.2,3.207H22.365a.685.685,0,0,1,0,1.369H10.184l3.2,3.207a.693.693,0,0,1-.005.969.682.682,0,0,1-.964-.005l-4.34-4.371h0a.769.769,0,0,1-.142-.216.653.653,0,0,1-.053-.263.686.686,0,0,1,.195-.479l4.34-4.371A.671.671,0,0,1,13.375,11.445Z" transform="translate(23.044 21.363) rotate(180)" fill="#fff"/>
</svg>
